<svg width="1rem" height="1rem" viewBox="0 0 24 24" fill="currentColor" xmlns="http://www.w3.org/2000/svg"><path d="M2.237 2.5a1 1 0 0 1 1-1h12.865a5.24 5.24 0 0 1 3.631 1.447 4.848 4.848 0 0 1 1.504 3.494V21.5a1 1 0 0 1-1 1H7.372a5.24 5.24 0 0 1-3.63-1.447 4.849 4.849 0 0 1-1.505-3.494V2.5Z" fill="currentColor"></path><path d="M6.737 8.7a.7.7 0 0 1 .7-.7h8.6a.7.7 0 1 1 0 1.4h-8.6a.7.7 0 0 1-.7-.7Zm0 3.4a.7.7 0 0 1 .7-.7h8.6a.7.7 0 1 1 0 1.4h-8.6a.7.7 0 0 1-.7-.7Zm0 3.4a.7.7 0 0 1 .7-.7h4.6a.7.7 0 1 1 0 1.4h-4.6a.7.7 0 0 1-.7-.7Z" fill="#fff"></path></svg>
